<svg width="17" height="15" viewBox="0 0 17 15" fill="none" xmlns="http://www.w3.org/2000/svg">
<path d="M8.49105 0.68156C8.56875 0.457384 8.88579 0.457383 8.96348 0.68156L10.6284 5.48537C10.6633 5.58601 10.7581 5.6535 10.8646 5.6535H16.2163C16.4623 5.6535 16.5604 5.9716 16.357 6.11012L12.0558 9.03984C11.9624 9.10341 11.9233 9.22164 11.9603 9.32833L13.6097 14.0873C13.6885 14.3148 13.4317 14.5114 13.2327 14.3758L8.868 11.4029C8.78309 11.345 8.67144 11.345 8.58653 11.4029L4.22182 14.3758C4.02281 14.5114 3.76602 14.3148 3.84487 14.0873L5.49424 9.32833C5.53122 9.22164 5.49209 9.10341 5.39876 9.03984L1.09752 6.11012C0.894148 5.9716 0.99219 5.6535 1.23826 5.6535H6.58993C6.69644 5.6535 6.79126 5.58601 6.82614 5.48537L8.49105 0.68156Z" fill="#FBB040"/>
</svg>
